<svg width="153" height="52" viewBox="0 0 153 52" fill="none" xmlns="http://www.w3.org/2000/svg">
<path d="M6.3 25.104C3.9 23.856 2.7 21.924 2.7 19.308C2.7 18.012 3.024 16.836 3.672 15.78C4.344 14.7 5.34 13.848 6.66 13.224C8.004 12.576 9.636 12.252 11.556 12.252C13.476 12.252 15.096 12.576 16.416 13.224C17.76 13.848 18.756 14.7 19.404 15.78C20.076 16.836 20.412 18.012 20.412 19.308C20.412 20.628 20.088 21.792 19.44 22.8C18.792 23.784 17.928 24.552 16.848 25.104C18.168 25.68 19.2 26.52 19.944 27.624C20.688 28.728 21.06 30.036 21.06 31.548C21.06 33.18 20.64 34.608 19.8 35.832C18.984 37.032 17.856 37.956 16.416 38.604C14.976 39.252 13.356 39.576 11.556 39.576C9.756 39.576 8.136 39.252 6.696 38.604C5.28 37.956 4.152 37.032 3.312 35.832C2.496 34.608 2.088 33.18 2.088 31.548C2.088 30.036 2.46 28.728 3.204 27.624C3.948 26.496 4.98 25.656 6.3 25.104ZM15.516 20.028C15.516 18.852 15.156 17.94 14.436 17.292C13.74 16.644 12.78 16.32 11.556 16.32C10.356 16.32 9.396 16.644 8.676 17.292C7.98 17.94 7.632 18.864 7.632 20.064C7.632 21.144 7.992 22.008 8.712 22.656C9.456 23.304 10.404 23.628 11.556 23.628C12.708 23.628 13.656 23.304 14.4 22.656C15.144 21.984 15.516 21.108 15.516 20.028ZM11.556 27.3C10.188 27.3 9.072 27.648 8.208 28.344C7.368 29.04 6.948 30.036 6.948 31.332C6.948 32.532 7.356 33.516 8.172 34.284C9.012 35.028 10.14 35.4 11.556 35.4C12.972 35.4 14.088 35.016 14.904 34.248C15.72 33.48 16.128 32.508 16.128 31.332C16.128 30.06 15.708 29.076 14.868 28.38C14.028 27.66 12.924 27.3 11.556 27.3ZM44.4448 28.38H37.6408V35.364H32.8888V28.38H26.0848V23.988H32.8888V17.004H37.6408V23.988H44.4448V28.38Z" fill="#286F6C"/>
<path d="M67.44 7.88L63.76 14.968V19H61.936V14.968L58.24 7.88H60.272L62.848 13.336L65.424 7.88H67.44ZM70.7115 9.352V12.616H74.5515V14.104H70.7115V17.512H75.0315V19H68.8875V7.864H75.0315V9.352H70.7115ZM83.9821 16.728H79.3261L78.5261 19H76.6221L80.6061 7.864H82.7181L86.7021 19H84.7821L83.9821 16.728ZM83.4701 15.24L81.6621 10.072L79.8381 15.24H83.4701ZM94.2104 19L91.6504 14.552H90.2584V19H88.4344V7.88H92.2744C93.1277 7.88 93.8477 8.02933 94.4344 8.328C95.0317 8.62667 95.4744 9.02667 95.7624 9.528C96.061 10.0293 96.2104 10.5893 96.2104 11.208C96.2104 11.9333 95.997 12.5947 95.5704 13.192C95.1544 13.7787 94.509 14.1787 93.6344 14.392L96.3864 19H94.2104ZM90.2584 13.096H92.2744C92.957 13.096 93.469 12.9253 93.8104 12.584C94.1624 12.2427 94.3384 11.784 94.3384 11.208C94.3384 10.632 94.1677 10.184 93.8264 9.864C93.485 9.53333 92.9677 9.368 92.2744 9.368H90.2584V13.096ZM102.208 19.112C101.461 19.112 100.789 18.984 100.192 18.728C99.5944 18.4613 99.1251 18.088 98.7838 17.608C98.4424 17.128 98.2718 16.568 98.2718 15.928H100.224C100.266 16.408 100.453 16.8027 100.784 17.112C101.125 17.4213 101.6 17.576 102.208 17.576C102.837 17.576 103.328 17.4267 103.68 17.128C104.032 16.8187 104.208 16.424 104.208 15.944C104.208 15.5707 104.096 15.2667 103.872 15.032C103.658 14.7973 103.386 14.616 103.056 14.488C102.736 14.36 102.288 14.2213 101.712 14.072C100.986 13.88 100.394 13.688 99.9358 13.496C99.4878 13.2933 99.1038 12.984 98.7838 12.568C98.4638 12.152 98.3038 11.5973 98.3038 10.904C98.3038 10.264 98.4638 9.704 98.7838 9.224C99.1038 8.744 99.5518 8.376 100.128 8.12C100.704 7.864 101.37 7.736 102.128 7.736C103.205 7.736 104.085 8.008 104.768 8.552C105.461 9.08533 105.845 9.82133 105.92 10.76H103.904C103.872 10.3547 103.68 10.008 103.328 9.72C102.976 9.432 102.512 9.288 101.936 9.288C101.413 9.288 100.986 9.42133 100.656 9.688C100.325 9.95467 100.16 10.3387 100.16 10.84C100.16 11.1813 100.261 11.464 100.464 11.688C100.677 11.9013 100.944 12.072 101.264 12.2C101.584 12.328 102.021 12.4667 102.576 12.616C103.312 12.8187 103.909 13.0213 104.368 13.224C104.837 13.4267 105.232 13.7413 105.552 14.168C105.882 14.584 106.048 15.144 106.048 15.848C106.048 16.4133 105.893 16.9467 105.584 17.448C105.285 17.9493 104.842 18.3547 104.256 18.664C103.68 18.9627 102.997 19.112 102.208 19.112ZM61.024 35.352V38.616H64.864V40.104H61.024V43.512H65.344V45H59.2V33.864H65.344V35.352H61.024ZM72.6946 39.448L76.1506 45H74.1026L71.5906 40.968L69.2386 45H67.2066L70.6626 39.448L67.1906 33.88H69.2386L71.7666 37.944L74.1346 33.88H76.1666L72.6946 39.448ZM85.9291 37.192C85.9291 37.7573 85.7958 38.2907 85.5291 38.792C85.2625 39.2933 84.8358 39.704 84.2491 40.024C83.6625 40.3333 82.9105 40.488 81.9931 40.488H79.9771V45H78.1531V33.88H81.9931C82.8465 33.88 83.5665 34.0293 84.1531 34.328C84.7505 34.616 85.1931 35.0107 85.4811 35.512C85.7798 36.0133 85.9291 36.5733 85.9291 37.192ZM81.9931 39C82.6865 39 83.2038 38.8453 83.5451 38.536C83.8865 38.216 84.0571 37.768 84.0571 37.192C84.0571 35.976 83.3691 35.368 81.9931 35.368H79.9771V39H81.9931ZM89.4928 35.352V38.616H93.3328V40.104H89.4928V43.512H93.8128V45H87.6688V33.864H93.8128V35.352H89.4928ZM101.835 45L99.2754 40.552H97.8834V45H96.0594V33.88H99.8994C100.753 33.88 101.473 34.0293 102.059 34.328C102.657 34.6267 103.099 35.0267 103.387 35.528C103.686 36.0293 103.835 36.5893 103.835 37.208C103.835 37.9333 103.622 38.5947 103.195 39.192C102.779 39.7787 102.134 40.1787 101.259 40.392L104.011 45H101.835ZM97.8834 39.096H99.8994C100.582 39.096 101.094 38.9253 101.435 38.584C101.787 38.2427 101.963 37.784 101.963 37.208C101.963 36.632 101.793 36.184 101.451 35.864C101.11 35.5333 100.593 35.368 99.8994 35.368H97.8834V39.096ZM107.993 33.88V45H106.169V33.88H107.993ZM112.212 35.352V38.616H116.052V40.104H112.212V43.512H116.532V45H110.388V33.864H116.532V35.352H112.212ZM127.914 45H126.09L120.602 36.696V45H118.778V33.864H120.602L126.09 42.152V33.864H127.914V45ZM129.701 39.416C129.701 38.328 129.952 37.352 130.453 36.488C130.965 35.624 131.653 34.952 132.517 34.472C133.392 33.9813 134.347 33.736 135.381 33.736C136.565 33.736 137.616 34.0293 138.533 34.616C139.461 35.192 140.133 36.0133 140.549 37.08H138.357C138.069 36.4933 137.669 36.056 137.157 35.768C136.645 35.48 136.053 35.336 135.381 35.336C134.645 35.336 133.989 35.5013 133.413 35.832C132.837 36.1627 132.384 36.6373 132.053 37.256C131.733 37.8747 131.573 38.5947 131.573 39.416C131.573 40.2373 131.733 40.9573 132.053 41.576C132.384 42.1947 132.837 42.6747 133.413 43.016C133.989 43.3467 134.645 43.512 135.381 43.512C136.053 43.512 136.645 43.368 137.157 43.08C137.669 42.792 138.069 42.3547 138.357 41.768H140.549C140.133 42.8347 139.461 43.656 138.533 44.232C137.616 44.808 136.565 45.096 135.381 45.096C134.336 45.096 133.381 44.856 132.517 44.376C131.653 43.8853 130.965 43.208 130.453 42.344C129.952 41.48 129.701 40.504 129.701 39.416ZM144.508 35.352V38.616H148.348V40.104H144.508V43.512H148.828V45H142.684V33.864H148.828V35.352H144.508Z" fill="#0D2F3F"/>
</svg>
