<svg width="358" height="126" viewBox="0 0 358 126" fill="none" xmlns="http://www.w3.org/2000/svg">
<path d="M10.128 23.184L16.512 23.136C18.88 23.136 20.064 23.168 20.064 23.232C20.064 19.04 20.128 15.984 20.256 14.064C20.384 12.144 20.448 11.152 20.448 11.088C20.448 11.024 20.672 10.864 21.12 10.608C21.6 10.352 22.256 10.112 23.088 9.888C23.92 9.632 24.624 9.504 25.2 9.504C25.808 9.504 26.112 9.568 26.112 9.696C25.76 14.4 25.584 19.424 25.584 24.768C25.584 30.08 25.744 34.032 26.064 36.624C26.384 39.216 27.088 41.056 28.176 42.144C28.176 42.208 28.016 42.368 27.696 42.624C27.408 42.88 26.688 43.184 25.536 43.536C24.416 43.888 23.36 44.064 22.368 44.064L21.792 43.968C21.184 43.36 20.752 42.112 20.496 40.224C20.272 38.304 20.144 34.288 20.112 28.176C19.568 28.144 17.824 28.128 14.88 28.128C11.968 28.128 10.368 28.176 10.08 28.272C10.048 29.168 10.032 31.152 10.032 34.224C10.032 37.264 10.16 39.808 10.416 41.856C10.416 42.208 9.904 42.496 8.88 42.72C7.856 42.976 6.896 43.104 6 43.104C5.136 43.104 4.608 43.008 4.416 42.816C4.256 42.656 4.176 39.728 4.176 34.032V28.368C3.76 27.984 3.28 27.248 2.736 26.16C2.192 25.072 1.92 24.176 1.92 23.472C1.92 23.376 2.704 23.328 4.272 23.328C4.304 21.056 4.32 18.448 4.32 15.504V14.496C3.488 12.96 3.072 11.44 3.072 9.936C3.072 9.808 3.088 9.728 3.12 9.696C3.312 9.664 3.488 9.648 3.648 9.648C3.808 9.648 4.16 9.648 4.704 9.648C5.28 9.648 6.08 9.76 7.104 9.984C8.128 10.176 8.944 10.4 9.552 10.656C10.16 10.912 10.464 11.12 10.464 11.28C10.24 12.848 10.128 16.496 10.128 22.224V23.184ZM49.7726 28.608L49.8206 41.376C49.8206 43.872 49.4846 46.096 48.8126 48.048C48.1726 50 47.3726 51.504 46.4126 52.56C45.4846 53.616 44.4126 54.48 43.1966 55.152C41.2126 56.272 39.1966 56.832 37.1486 56.832C37.0526 56.832 36.8606 56.592 36.5726 56.112C36.2846 55.632 36.0126 54.976 35.7566 54.144C35.5006 53.344 35.3726 52.592 35.3726 51.888C36.5886 51.888 37.8046 51.648 39.0206 51.168C40.2366 50.72 41.0846 50.224 41.5646 49.68C42.0446 49.168 42.5246 48.512 43.0046 47.712C43.9966 46.144 44.4926 43.6 44.4926 40.08L44.4446 38.688C44.4446 38.496 44.4126 38.4 44.3486 38.4C44.2846 38.4 44.2206 38.448 44.1566 38.544C44.0926 38.64 44.0126 38.768 43.9166 38.928C43.8206 39.056 43.5806 39.312 43.1966 39.696C42.8446 40.048 42.4606 40.368 42.0446 40.656C40.9246 41.424 39.7886 41.808 38.6366 41.808C37.5166 41.808 36.6206 41.664 35.9486 41.376C35.3086 41.088 34.7646 40.72 34.3166 40.272C33.9006 39.824 33.5486 39.2 33.2606 38.4C32.9726 37.568 32.7486 36.8 32.5886 36.096C32.4286 35.392 32.3166 34.432 32.2526 33.216C32.1246 31.52 32.0606 29.76 32.0606 27.936C32.0606 25.408 32.1886 23.344 32.4446 21.744L32.5886 21.072C32.5886 20.848 33.0686 20.624 34.0286 20.4C35.0206 20.176 35.8366 20.064 36.4766 20.064L38.0126 20.304C37.6606 23.472 37.4846 26.144 37.4846 28.32C37.4846 30.496 37.7086 32.304 38.1566 33.744C38.6046 35.184 39.3566 35.904 40.4126 35.904C41.4686 35.904 42.3006 35.6 42.9086 34.992C43.5486 34.352 43.9486 33.728 44.1086 33.12L44.3486 32.208C44.2846 30.192 44.2526 28.032 44.2526 25.728C44.2526 23.392 44.3326 22.144 44.4926 21.984C44.9086 21.568 45.6286 21.248 46.6526 21.024C47.7086 20.8 48.5566 20.688 49.1966 20.688C49.8366 20.688 50.1566 20.736 50.1566 20.832C49.9006 22.336 49.7726 24.928 49.7726 28.608ZM57.1181 32.4L55.1501 32.16C55.1501 29.12 55.0061 25.808 54.7181 22.224C54.4621 18.64 54.1901 15.824 53.9021 13.776L53.5181 10.656C53.8061 10.368 54.7661 10.176 56.3981 10.08L57.1661 10.032C58.8941 10.032 60.0941 10.256 60.7661 10.704C60.8621 10.768 60.9101 10.832 60.9101 10.896C60.9101 10.928 60.8621 11.136 60.7661 11.52C60.7021 11.872 60.6221 12.304 60.5261 12.816C60.4301 13.296 60.3341 13.824 60.2381 14.4C60.0141 15.744 59.9021 16.704 59.9021 17.28C59.9021 17.856 59.8541 19.2 59.7581 21.312C59.4061 27.36 59.1821 30.944 59.0861 32.064C58.4461 32.288 57.7901 32.4 57.1181 32.4ZM59.4701 36.72C60.1101 37.328 60.4301 38.08 60.4301 38.976C60.4301 39.872 60.1101 40.64 59.4701 41.28C58.8621 41.888 58.1101 42.192 57.2141 42.192C56.3181 42.192 55.5501 41.888 54.9101 41.28C54.3021 40.64 53.9981 39.872 53.9981 38.976C53.9981 38.08 54.3021 37.328 54.9101 36.72C55.5501 36.08 56.3181 35.76 57.2141 35.76C58.1101 35.76 58.8621 36.08 59.4701 36.72ZM84.384 37.728C84.512 37.728 84.576 38.528 84.576 40.128C84.576 41.696 84.48 42.48 84.288 42.48C79.648 42.48 76.32 42.704 74.304 43.152C74.208 43.152 74.16 42.448 74.16 41.04C74.16 39.632 74.272 38.784 74.496 38.496C74.88 38.304 75.504 38.208 76.368 38.208C76.304 37.12 76.272 33.248 76.272 26.592C76.272 19.904 76.352 16.08 76.512 15.12H76.416C75.552 15.12 74.832 15.216 74.256 15.408C74.192 15.408 74.16 14.688 74.16 13.248C74.16 11.776 74.256 10.944 74.448 10.752C74.64 10.56 75.92 10.384 78.288 10.224C80.656 10.064 82.64 9.984 84.24 9.984C84.336 9.984 84.384 10.24 84.384 10.752L84.24 14.304C84.24 14.432 84.192 14.496 84.096 14.496C83.008 14.496 82.432 14.528 82.368 14.592C82.304 14.624 82.256 15.28 82.224 16.56C82.096 21.616 82.032 26 82.032 29.712C82.032 33.392 82.16 36.08 82.416 37.776C82.832 37.744 83.488 37.728 84.384 37.728ZM114.808 31.248C114.36 31.216 112.984 31.2 110.68 31.2C108.376 31.2 107.032 31.264 106.648 31.392C104.952 36.96 103.992 40.976 103.768 43.44C103.768 43.472 103.368 43.488 102.568 43.488C101.8 43.488 101 43.44 100.168 43.344C98.4081 43.088 97.5281 42.864 97.5281 42.672C97.5281 41.392 98.6641 37.664 100.936 31.488C100.52 31.136 100.04 30.416 99.4961 29.328C98.9521 28.208 98.6801 27.28 98.6801 26.544C98.6801 26.512 100.008 26.448 102.664 26.352C105.288 18.736 106.776 14.72 107.128 14.304C107.256 14.208 107.832 14.064 108.856 13.872C109.88 13.648 110.536 13.536 110.824 13.536L110.728 12.912C110.664 12.464 110.584 11.984 110.488 11.472C110.424 10.928 110.392 10.576 110.392 10.416C110.392 10.32 110.664 10.128 111.208 9.84C112.776 9.072 114.392 8.688 116.056 8.688C116.376 10.576 116.792 12.992 117.304 15.936C117.848 18.848 118.888 23.312 120.424 29.328C121.96 35.344 123.432 39.536 124.84 41.904L125.176 42.48C125.176 42.64 124.872 42.912 124.264 43.296C123.656 43.68 122.856 44.048 121.864 44.4C120.872 44.752 119.96 44.928 119.128 44.928C118.84 44.928 118.136 43.12 117.016 39.504C115.928 35.856 115.192 33.104 114.808 31.248ZM113.656 26.304C112.568 21.696 111.976 19.12 111.88 18.576C111.784 18.032 111.704 17.76 111.64 17.76C111.576 17.76 111.496 17.824 111.4 17.952C111.112 18.496 110.568 19.808 109.768 21.888C109 23.968 108.504 25.408 108.28 26.208C111.832 26.208 113.624 26.24 113.656 26.304ZM127.752 36.048L127.608 24.768C127.608 22.72 127.688 21.616 127.848 21.456C128.232 21.104 128.824 20.784 129.624 20.496C130.424 20.176 131.192 20.016 131.928 20.016C132.664 20.016 133.032 20.08 133.032 20.208C132.904 21.616 132.84 22.688 132.84 23.424C132.84 24.16 132.872 24.528 132.936 24.528C133 24.528 133.096 24.464 133.224 24.336C133.352 24.176 133.576 23.952 133.896 23.664C134.248 23.344 134.872 22.928 135.768 22.416C136.696 21.872 137.544 21.6 138.312 21.6C140.392 21.6 141.96 22.528 143.016 24.384C144.84 21.824 146.856 20.544 149.064 20.544C151.048 20.544 152.472 21.392 153.336 23.088C154.232 24.976 154.76 26.864 154.92 28.752C155.112 31.504 155.208 34.352 155.208 37.296L155.016 42.912C155.016 43.136 154.488 43.344 153.432 43.536C152.376 43.76 151.528 43.872 150.888 43.872L149.352 43.632C149.704 40.464 149.88 37.904 149.88 35.952C149.88 34 149.848 32.608 149.784 31.776C149.752 30.912 149.64 30.064 149.448 29.232C149.256 28.368 148.952 27.76 148.536 27.408C148.152 27.024 147.656 26.832 147.048 26.832C146.44 26.832 145.896 27.008 145.416 27.36C144.936 27.68 144.584 28 144.36 28.32C144.168 28.64 144.072 28.848 144.072 28.944C144.168 29.968 144.216 32.336 144.216 36.048L144.024 39.84C144.024 40.096 143.512 40.32 142.488 40.512C141.464 40.704 140.632 40.8 139.992 40.8L138.456 40.56C138.744 37.968 138.888 35.552 138.888 33.312C138.888 31.04 138.76 29.456 138.504 28.56C138.28 27.632 137.656 27.168 136.632 27.168C135.608 27.168 134.744 27.68 134.04 28.704C133.336 29.728 132.984 30.512 132.984 31.056V32.064L133.032 37.152C133.032 40.288 132.968 41.936 132.84 42.096C132.04 42.864 130.36 43.248 127.8 43.248C127.544 43.248 127.416 43.2 127.416 43.104C127.64 41.728 127.752 39.376 127.752 36.048Z" fill="#0D2F3F"/>
<path d="M14.88 114.336C12.544 114.336 10.432 113.936 8.544 113.136C6.688 112.336 5.216 111.184 4.128 109.68C3.04 108.176 2.48 106.4 2.448 104.352H9.648C9.744 105.728 10.224 106.816 11.088 107.616C11.984 108.416 13.2 108.816 14.736 108.816C16.304 108.816 17.536 108.448 18.432 107.712C19.328 106.944 19.776 105.952 19.776 104.736C19.776 103.744 19.472 102.928 18.864 102.288C18.256 101.648 17.488 101.152 16.56 100.8C15.664 100.416 14.416 100 12.816 99.552C10.64 98.912 8.864 98.288 7.488 97.68C6.144 97.04 4.976 96.096 3.984 94.848C3.024 93.568 2.544 91.872 2.544 89.76C2.544 87.776 3.04 86.048 4.032 84.576C5.024 83.104 6.416 81.984 8.208 81.216C10 80.416 12.048 80.016 14.352 80.016C17.808 80.016 20.608 80.864 22.752 82.56C24.928 84.224 26.128 86.56 26.352 89.568H18.96C18.896 88.416 18.4 87.472 17.472 86.736C16.576 85.968 15.376 85.584 13.872 85.584C12.56 85.584 11.504 85.92 10.704 86.592C9.936 87.264 9.552 88.24 9.552 89.52C9.552 90.416 9.84 91.168 10.416 91.776C11.024 92.352 11.76 92.832 12.624 93.216C13.52 93.568 14.768 93.984 16.368 94.464C18.544 95.104 20.32 95.744 21.696 96.384C23.072 97.024 24.256 97.984 25.248 99.264C26.24 100.544 26.736 102.224 26.736 104.304C26.736 106.096 26.272 107.76 25.344 109.296C24.416 110.832 23.056 112.064 21.264 112.992C19.472 113.888 17.344 114.336 14.88 114.336ZM30.834 100.608C30.834 97.92 31.362 95.536 32.418 93.456C33.506 91.376 34.962 89.776 36.786 88.656C38.642 87.536 40.706 86.976 42.978 86.976C44.962 86.976 46.69 87.376 48.162 88.176C49.666 88.976 50.866 89.984 51.762 91.2V87.408H58.53V114H51.762V110.112C50.898 111.36 49.698 112.4 48.162 113.232C46.658 114.032 44.914 114.432 42.93 114.432C40.69 114.432 38.642 113.856 36.786 112.704C34.962 111.552 33.506 109.936 32.418 107.856C31.362 105.744 30.834 103.328 30.834 100.608ZM51.762 100.704C51.762 99.072 51.442 97.68 50.802 96.528C50.162 95.344 49.298 94.448 48.21 93.84C47.122 93.2 45.954 92.88 44.706 92.88C43.458 92.88 42.306 93.184 41.25 93.792C40.194 94.4 39.33 95.296 38.658 96.48C38.018 97.632 37.698 99.008 37.698 100.608C37.698 102.208 38.018 103.616 38.658 104.832C39.33 106.016 40.194 106.928 41.25 107.568C42.338 108.208 43.49 108.528 44.706 108.528C45.954 108.528 47.122 108.224 48.21 107.616C49.298 106.976 50.162 106.08 50.802 104.928C51.442 103.744 51.762 102.336 51.762 100.704ZM63.3652 100.704C63.3652 97.952 63.9253 95.552 65.0453 93.504C66.1653 91.424 67.7173 89.824 69.7013 88.704C71.6853 87.552 73.9573 86.976 76.5173 86.976C79.8133 86.976 82.5333 87.808 84.6773 89.472C86.8533 91.104 88.3093 93.408 89.0453 96.384H81.7973C81.4133 95.232 80.7573 94.336 79.8293 93.696C78.9333 93.024 77.8133 92.688 76.4693 92.688C74.5493 92.688 73.0293 93.392 71.9093 94.8C70.7893 96.176 70.2293 98.144 70.2293 100.704C70.2293 103.232 70.7893 105.2 71.9093 106.608C73.0293 107.984 74.5493 108.672 76.4693 108.672C79.1893 108.672 80.9653 107.456 81.7973 105.024H89.0453C88.3093 107.904 86.8533 110.192 84.6773 111.888C82.5013 113.584 79.7813 114.432 76.5173 114.432C73.9573 114.432 71.6853 113.872 69.7013 112.752C67.7173 111.6 66.1653 110 65.0453 107.952C63.9253 105.872 63.3652 103.456 63.3652 100.704ZM108.944 87.024C110.96 87.024 112.752 87.472 114.32 88.368C115.888 89.232 117.104 90.528 117.968 92.256C118.864 93.952 119.312 96 119.312 98.4V114H112.592V99.312C112.592 97.2 112.064 95.584 111.008 94.464C109.952 93.312 108.512 92.736 106.688 92.736C104.832 92.736 103.36 93.312 102.272 94.464C101.216 95.584 100.688 97.2 100.688 99.312V114H93.9683V78.48H100.688V90.72C101.552 89.568 102.704 88.672 104.144 88.032C105.584 87.36 107.184 87.024 108.944 87.024ZM129.111 84.24C127.927 84.24 126.935 83.872 126.135 83.136C125.367 82.368 124.983 81.424 124.983 80.304C124.983 79.184 125.367 78.256 126.135 77.52C126.935 76.752 127.927 76.368 129.111 76.368C130.295 76.368 131.271 76.752 132.039 77.52C132.839 78.256 133.239 79.184 133.239 80.304C133.239 81.424 132.839 82.368 132.039 83.136C131.271 83.872 130.295 84.24 129.111 84.24ZM132.423 87.408V114H125.703V87.408H132.423ZM153.798 87.024C156.966 87.024 159.526 88.032 161.478 90.048C163.43 92.032 164.406 94.816 164.406 98.4V114H157.686V99.312C157.686 97.2 157.158 95.584 156.102 94.464C155.046 93.312 153.606 92.736 151.782 92.736C149.926 92.736 148.454 93.312 147.366 94.464C146.31 95.584 145.782 97.2 145.782 99.312V114H139.062V87.408H145.782V90.72C146.678 89.568 147.814 88.672 149.19 88.032C150.598 87.36 152.134 87.024 153.798 87.024ZM218.762 80.496V114H212.042V92.208L203.066 114H197.978L188.954 92.208V114H182.234V80.496H189.866L200.522 105.408L211.178 80.496H218.762ZM228.814 84.24C227.63 84.24 226.638 83.872 225.838 83.136C225.07 82.368 224.686 81.424 224.686 80.304C224.686 79.184 225.07 78.256 225.838 77.52C226.638 76.752 227.63 76.368 228.814 76.368C229.998 76.368 230.974 76.752 231.742 77.52C232.542 78.256 232.942 79.184 232.942 80.304C232.942 81.424 232.542 82.368 231.742 83.136C230.974 83.872 229.998 84.24 228.814 84.24ZM232.126 87.408V114H225.406V87.408H232.126ZM248.941 114.432C246.765 114.432 244.813 114.048 243.085 113.28C241.357 112.48 239.981 111.408 238.957 110.064C237.965 108.72 237.421 107.232 237.325 105.6H244.093C244.221 106.624 244.717 107.472 245.581 108.144C246.477 108.816 247.581 109.152 248.893 109.152C250.173 109.152 251.165 108.896 251.869 108.384C252.605 107.872 252.973 107.216 252.973 106.416C252.973 105.552 252.525 104.912 251.629 104.496C250.765 104.048 249.373 103.568 247.453 103.056C245.469 102.576 243.837 102.08 242.557 101.568C241.309 101.056 240.221 100.272 239.293 99.216C238.397 98.16 237.949 96.736 237.949 94.944C237.949 93.472 238.365 92.128 239.197 90.912C240.061 89.696 241.277 88.736 242.845 88.032C244.445 87.328 246.317 86.976 248.461 86.976C251.629 86.976 254.157 87.776 256.045 89.376C257.933 90.944 258.973 93.072 259.165 95.76H252.733C252.637 94.704 252.189 93.872 251.389 93.264C250.621 92.624 249.581 92.304 248.269 92.304C247.053 92.304 246.109 92.528 245.437 92.976C244.797 93.424 244.477 94.048 244.477 94.848C244.477 95.744 244.925 96.432 245.821 96.912C246.717 97.36 248.109 97.824 249.997 98.304C251.917 98.784 253.501 99.28 254.749 99.792C255.997 100.304 257.069 101.104 257.965 102.192C258.893 103.248 259.373 104.656 259.405 106.416C259.405 107.952 258.973 109.328 258.109 110.544C257.277 111.76 256.061 112.72 254.461 113.424C252.893 114.096 251.053 114.432 248.941 114.432ZM279.897 87.024C281.913 87.024 283.705 87.472 285.273 88.368C286.841 89.232 288.057 90.528 288.921 92.256C289.817 93.952 290.265 96 290.265 98.4V114H283.545V99.312C283.545 97.2 283.017 95.584 281.961 94.464C280.905 93.312 279.465 92.736 277.641 92.736C275.785 92.736 274.313 93.312 273.225 94.464C272.169 95.584 271.641 97.2 271.641 99.312V114H264.921V78.48H271.641V90.72C272.505 89.568 273.657 88.672 275.097 88.032C276.537 87.36 278.137 87.024 279.897 87.024ZM303.376 91.536C304.24 90.128 305.36 89.024 306.736 88.224C308.144 87.424 309.744 87.024 311.536 87.024V94.08H309.76C307.648 94.08 306.048 94.576 304.96 95.568C303.904 96.56 303.376 98.288 303.376 100.752V114H296.656V87.408H303.376V91.536ZM314.334 100.608C314.334 97.92 314.862 95.536 315.918 93.456C317.006 91.376 318.462 89.776 320.286 88.656C322.142 87.536 324.206 86.976 326.478 86.976C328.462 86.976 330.19 87.376 331.662 88.176C333.166 88.976 334.366 89.984 335.262 91.2V87.408H342.03V114H335.262V110.112C334.398 111.36 333.198 112.4 331.662 113.232C330.158 114.032 328.414 114.432 326.43 114.432C324.19 114.432 322.142 113.856 320.286 112.704C318.462 111.552 317.006 109.936 315.918 107.856C314.862 105.744 314.334 103.328 314.334 100.608ZM335.262 100.704C335.262 99.072 334.942 97.68 334.302 96.528C333.662 95.344 332.798 94.448 331.71 93.84C330.622 93.2 329.454 92.88 328.206 92.88C326.958 92.88 325.806 93.184 324.75 93.792C323.694 94.4 322.83 95.296 322.158 96.48C321.518 97.632 321.198 99.008 321.198 100.608C321.198 102.208 321.518 103.616 322.158 104.832C322.83 106.016 323.694 106.928 324.75 107.568C325.838 108.208 326.99 108.528 328.206 108.528C329.454 108.528 330.622 108.224 331.71 107.616C332.798 106.976 333.662 106.08 334.302 104.928C334.942 103.744 335.262 102.336 335.262 100.704ZM351.569 114.336C350.353 114.336 349.345 113.968 348.545 113.232C347.777 112.464 347.393 111.52 347.393 110.4C347.393 109.28 347.777 108.352 348.545 107.616C349.345 106.848 350.353 106.464 351.569 106.464C352.753 106.464 353.729 106.848 354.497 107.616C355.265 108.352 355.649 109.28 355.649 110.4C355.649 111.52 355.265 112.464 354.497 113.232C353.729 113.968 352.753 114.336 351.569 114.336Z" fill="#EDB33C"/>
</svg>
